HIERARCHY
ROOT Hips
{
	OFFSET 0.000000 83.214638 0.000000
	CHANNELS 6 Xposition Yposition Zposition Xrotation Yrotation Zrotation
	JOINT Pelvis
	{
		OFFSET 0.000000 0.000000 0.000000
		CHANNELS 3 Xrotation Yrotation Zrotation
		JOINT LeftUpLeg
		{
			OFFSET 8.479700 -4.795502 -0.379100
			CHANNELS 3 Xrotation Yrotation Zrotation
			JOINT LeftLeg
			{
				OFFSET 0.024144 -32.555107 0.112900
				CHANNELS 3 Xrotation Yrotation Zrotation
				JOINT LeftFoot
				{
					OFFSET -0.024144 -32.638630 -3.012600
					CHANNELS 3 Xrotation Yrotation Zrotation
					JOINT LeftToeBase
					{
						OFFSET 0.970200 -13.225400 11.864200
						CHANNELS 3 Xrotation Yrotation Zrotation
						End Site
						{
							OFFSET 0.000000 12.319262 0.000000
						}
					}
					JOINT LFootTongue
					{
						OFFSET 1.142400 -1.059800 6.665200
						CHANNELS 3 Xrotation Yrotation Zrotation
						End Site
						{
							OFFSET 0.000000 12.319262 0.000000
						}
					}
				}
				JOINT LeftPantLeg
				{
					OFFSET 0.918482 -16.533964 -2.284700
					CHANNELS 3 Xrotation Yrotation Zrotation
					End Site
					{
						OFFSET 0.350399 24.744368 0.000000
					}
				}
			}
		}
		JOINT RightUpLeg
		{
			OFFSET -8.479700 -4.795502 -0.379100
			CHANNELS 3 Xrotation Yrotation Zrotation
			JOINT RightLeg
			{
				OFFSET -0.023144 -32.555092 0.112900
				CHANNELS 3 Xrotation Yrotation Zrotation
				JOINT RightFoot
				{
					OFFSET 0.023144 -32.638641 -3.012700
					CHANNELS 3 Xrotation Yrotation Zrotation
					JOINT RightToeBase
					{
						OFFSET -0.970200 -13.225400 11.864200
						CHANNELS 3 Xrotation Yrotation Zrotation
						End Site
						{
							OFFSET 0.000000 12.319244 0.000000
						}
					}
					JOINT RFootTongue
					{
						OFFSET -1.142200 -1.059800 6.665200
						CHANNELS 3 Xrotation Yrotation Zrotation
						End Site
						{
							OFFSET 0.000000 12.319243 0.000000
						}
					}
				}
				JOINT RightPantLeg
				{
					OFFSET -0.919482 -16.533978 -2.284800
					CHANNELS 3 Xrotation Yrotation Zrotation
					End Site
					{
						OFFSET -0.350400 24.744419 0.000000
					}
				}
			}
		}
	}
	JOINT Spine
	{
		OFFSET 0.000000 7.722000 1.166200
		CHANNELS 3 Xrotation Yrotation Zrotation
		JOINT Spine1
		{
			OFFSET 0.000000 12.024101 0.248800
			CHANNELS 3 Xrotation Yrotation Zrotation
			JOINT Spine2
			{
				OFFSET 0.000000 11.502998 -0.491200
				CHANNELS 3 Xrotation Yrotation Zrotation
				JOINT Neck
				{
					OFFSET 0.000000 18.430702 -3.123100
					CHANNELS 3 Xrotation Yrotation Zrotation
					JOINT Head
					{
						OFFSET 0.000000 9.051102 1.034000
						CHANNELS 3 Xrotation Yrotation Zrotation
						JOINT HairB
						{
							OFFSET 0.208400 24.786102 24.822300
							CHANNELS 3 Xrotation Yrotation Zrotation
							End Site
							{
								OFFSET 0.000000 32.263779 0.000000
							}
						}
						JOINT HairA
						{
							OFFSET -7.081100 24.428299 23.196600
							CHANNELS 3 Xrotation Yrotation Zrotation
							End Site
							{
								OFFSET 0.000000 32.263779 0.000000
							}
						}
						JOINT Hat
						{
							OFFSET 16.728800 15.048294 -15.439601
							CHANNELS 3 Xrotation Yrotation Zrotation
							End Site
							{
								OFFSET 0.000000 32.263779 0.000000
							}
						}
					}
				}
				JOINT LeftShoulder
				{
					OFFSET 6.197800 13.665199 -4.064700
					CHANNELS 3 Xrotation Yrotation Zrotation
					JOINT LeftArm
					{
						OFFSET 7.778100 -0.187103 -1.709300
						CHANNELS 3 Xrotation Yrotation Zrotation
						JOINT LeftForeArm
						{
							OFFSET 22.049376 0.000000 0.000000
							CHANNELS 3 Xrotation Yrotation Zrotation
							JOINT LeftHand
							{
								OFFSET 23.009392 0.000000 0.000000
								CHANNELS 3 Xrotation Yrotation Zrotation
								JOINT LeftHandThumb1
								{
									OFFSET 3.507191 -2.063065 3.133727
									CHANNELS 3 Xrotation Yrotation Zrotation
									JOINT LeftHandThumb2
									{
										OFFSET 3.101337 -1.790558 1.790558
										CHANNELS 3 Xrotation Yrotation Zrotation
										JOINT LeftHandThumb3
										{
											OFFSET 3.058640 -1.765907 1.765906
											CHANNELS 3 Xrotation Yrotation Zrotation
											End Site
											{
												OFFSET -0.415260 3.926476 -0.049563
											}
										}
									}
								}
								JOINT LeftHandIndex1
								{
									OFFSET 11.334419 -0.901459 3.706815
									CHANNELS 3 Xrotation Yrotation Zrotation
									JOINT LeftHandIndex2
									{
										OFFSET 3.283112 0.000000 0.000000
										CHANNELS 3 Xrotation Yrotation Zrotation
										JOINT LeftHandIndex3
										{
											OFFSET 3.323853 0.000000 0.000000
											CHANNELS 3 Xrotation Yrotation Zrotation
											End Site
											{
												OFFSET -1.135597 3.097809 0.402452
											}
										}
									}
								}
								JOINT LeftHandMiddle1
								{
									OFFSET 11.335861 0.000000 0.000000
									CHANNELS 3 Xrotation Yrotation Zrotation
									JOINT LeftHandMiddle2
									{
										OFFSET 3.410492 0.000000 0.000000
										CHANNELS 3 Xrotation Yrotation Zrotation
										JOINT LeftHandMiddle3
										{
											OFFSET 3.312172 0.000000 0.000000
											CHANNELS 3 Xrotation Yrotation Zrotation
											End Site
											{
												OFFSET -1.150200 3.080154 0.400270
											}
										}
									}
								}
								JOINT LeftHandRing1
								{
									OFFSET 11.514786 -0.013176 -3.003090
									CHANNELS 3 Xrotation Yrotation Zrotation
									JOINT LeftHandRing2
									{
										OFFSET 3.053307 0.000000 0.000000
										CHANNELS 3 Xrotation Yrotation Zrotation
										JOINT LeftHandRing3
										{
											OFFSET 3.295807 0.000000 0.000000
											CHANNELS 3 Xrotation Yrotation Zrotation
											End Site
											{
												OFFSET -1.281006 3.013344 0.375733
											}
										}
									}
								}
								JOINT LeftHandPinky1
								{
									OFFSET 10.518692 -0.960396 -5.730441
									CHANNELS 3 Xrotation Yrotation Zrotation
									JOINT LeftHandPinky2
									{
										OFFSET 2.861649 0.000000 0.000000
										CHANNELS 3 Xrotation Yrotation Zrotation
										JOINT LeftHandPinky3
										{
											OFFSET 2.863380 0.000000 0.000000
											CHANNELS 3 Xrotation Yrotation Zrotation
											End Site
											{
												OFFSET -0.843597 2.711159 0.369971
											}
										}
									}
								}
							}
							JOINT LSleeve
							{
								OFFSET 6.676277 -0.344902 -1.011730
								CHANNELS 3 Xrotation Yrotation Zrotation
								End Site
								{
									OFFSET 0.000000 14.885353 0.000000
								}
							}
						}
					}
				}
				JOINT RightShoulder
				{
					OFFSET -6.197800 13.665199 -4.064700
					CHANNELS 3 Xrotation Yrotation Zrotation
					JOINT RightArm
					{
						OFFSET -7.778100 -0.187103 -1.709300
						CHANNELS 3 Xrotation Yrotation Zrotation
						JOINT RightForeArm
						{
							OFFSET -22.049376 0.000000 0.000000
							CHANNELS 3 Xrotation Yrotation Zrotation
							JOINT RightHand
							{
								OFFSET -23.009392 0.000000 0.000000
								CHANNELS 3 Xrotation Yrotation Zrotation
								JOINT RightHandThumb1
								{
									OFFSET -3.507191 -2.063065 3.133727
									CHANNELS 3 Xrotation Yrotation Zrotation
									JOINT RightHandThumb2
									{
										OFFSET -3.101337 -1.790558 1.790558
										CHANNELS 3 Xrotation Yrotation Zrotation
										JOINT RightHandThumb3
										{
											OFFSET -3.058640 -1.765907 1.765906
											CHANNELS 3 Xrotation Yrotation Zrotation
											End Site
											{
												OFFSET 0.415260 3.926476 -0.049563
											}
										}
									}
								}
								JOINT RightHandIndex1
								{
									OFFSET -11.334419 -0.901459 3.706815
									CHANNELS 3 Xrotation Yrotation Zrotation
									JOINT RightHandIndex2
									{
										OFFSET -3.283112 0.000000 0.000000
										CHANNELS 3 Xrotation Yrotation Zrotation
										JOINT RightHandIndex3
										{
											OFFSET -3.323853 0.000000 0.000000
											CHANNELS 3 Xrotation Yrotation Zrotation
											End Site
											{
												OFFSET 1.135597 3.097809 0.402452
											}
										}
									}
								}
								JOINT RightHandMiddle1
								{
									OFFSET -11.335861 0.000000 0.000000
									CHANNELS 3 Xrotation Yrotation Zrotation
									JOINT RightHandMiddle2
									{
										OFFSET -3.410492 0.000000 0.000000
										CHANNELS 3 Xrotation Yrotation Zrotation
										JOINT RightHandMiddle3
										{
											OFFSET -3.312172 0.000000 0.000000
											CHANNELS 3 Xrotation Yrotation Zrotation
											End Site
											{
												OFFSET 1.150200 3.080154 0.400270
											}
										}
									}
								}
								JOINT RightHandRing1
								{
									OFFSET -11.514786 -0.013176 -3.003090
									CHANNELS 3 Xrotation Yrotation Zrotation
									JOINT RightHandRing2
									{
										OFFSET -3.053307 0.000000 0.000000
										CHANNELS 3 Xrotation Yrotation Zrotation
										JOINT RightHandRing3
										{
											OFFSET -3.295807 0.000000 0.000000
											CHANNELS 3 Xrotation Yrotation Zrotation
											End Site
											{
												OFFSET 1.281006 3.013344 0.375733
											}
										}
									}
								}
								JOINT RightHandPinky1
								{
									OFFSET -10.518692 -0.960396 -5.730441
									CHANNELS 3 Xrotation Yrotation Zrotation
									JOINT RightHandPinky2
									{
										OFFSET -2.861649 0.000000 0.000000
										CHANNELS 3 Xrotation Yrotation Zrotation
										JOINT RightHandPinky3
										{
											OFFSET -2.863380 0.000000 0.000000
											CHANNELS 3 Xrotation Yrotation Zrotation
											End Site
											{
												OFFSET 0.843597 2.711159 0.369971
											}
										}
									}
								}
							}
							JOINT RSleeve
							{
								OFFSET -6.676277 -0.344902 -1.011730
								CHANNELS 3 Xrotation Yrotation Zrotation
								End Site
								{
									OFFSET 0.000000 14.885353 0.000000
								}
							}
						}
					}
				}
				JOINT Backpack
				{
					OFFSET 0.000000 -2.471497 36.677502
					CHANNELS 3 Xrotation Yrotation Zrotation
					End Site
					{
						OFFSET 0.000000 20.427315 0.000000
					}
				}
				JOINT Hood
				{
					OFFSET 0.000000 18.754097 -10.431000
					CHANNELS 3 Xrotation Yrotation Zrotation
					JOINT Hood1
					{
						OFFSET 0.000000 -5.011002 -7.685901
						CHANNELS 3 Xrotation Yrotation Zrotation
						End Site
						{
							OFFSET 0.000000 9.175140 0.000000
						}
					}
				}
				JOINT LHoodieString
				{
					OFFSET 5.250500 16.397697 3.089900
					CHANNELS 3 Xrotation Yrotation Zrotation
					JOINT LHoodieString1
					{
						OFFSET 0.257700 -6.364304 3.694600
						CHANNELS 3 Xrotation Yrotation Zrotation
						JOINT LHoodieString2
						{
							OFFSET 0.000000 -9.643799 2.679100
							CHANNELS 3 Xrotation Yrotation Zrotation
							End Site
							{
								OFFSET 0.000000 10.009018 0.000000
							}
						}
					}
				}
				JOINT RHoodieString
				{
					OFFSET -5.250500 16.397697 3.089900
					CHANNELS 3 Xrotation Yrotation Zrotation
					JOINT RHoodieString1
					{
						OFFSET -0.257700 -6.364304 3.694600
						CHANNELS 3 Xrotation Yrotation Zrotation
						JOINT RHoodieString2
						{
							OFFSET 0.000000 -9.643799 2.679100
							CHANNELS 3 Xrotation Yrotation Zrotation
							End Site
							{
								OFFSET 0.000000 10.009018 0.000000
							}
						}
					}
				}
			}
			JOINT LBackpack_Strap
			{
				OFFSET 15.223200 -7.719803 -6.610900
				CHANNELS 3 Xrotation Yrotation Zrotation
				End Site
				{
					OFFSET 0.000000 16.040596 0.000000
				}
			}
			JOINT RBackpack_Strap
			{
				OFFSET -15.223000 -7.719803 -6.610900
				CHANNELS 3 Xrotation Yrotation Zrotation
				End Site
				{
					OFFSET 0.000000 16.040596 0.000000
				}
			}
		}
	}
	JOINT BoyFacialAnim_Joint
	{
		OFFSET 1.000000 -82.208099 -1.550900
		CHANNELS 3 Xrotation Yrotation Zrotation
		End Site
		{
			OFFSET 0.000000 30.012791 0.000000
		}
	}
}
MOTION
Frames: 4
Frame Time: 0.016667
1.139654 80.265030 -40.352203 168.754604 -64.238503 168.461862 -0.000000 0.000001 0.000000 -30.913443 3.042120 15.184742 39.622286 -1.209726 -2.173956 -7.639959 1.602133 -5.082542 0.000000 -0.000001 -0.000001 0.000000 -0.000001 -0.000000 -0.000001 -0.000000 -0.000001 -13.547013 -11.777319 8.123717 22.270788 11.465867 1.236073 -11.490404 -0.372791 -12.128842 -0.000000 0.000003 -0.000000 -0.000000 0.000003 -0.000000 0.000000 0.000001 -0.000000 4.928380 1.825098 4.384147 -5.203247 2.467262 -3.030996 -5.047560 2.231922 -3.347159 0.930291 23.548870 10.139636 4.348297 27.823718 -14.089300 0.000000 0.000000 0.000000 0.000000 0.000000 0.000000 0.000000 0.000000 0.000000 1.079196 -0.344043 0.608159 7.615777 0.677534 -69.161703 8.512040 -19.175257 -8.473991 -0.253753 5.731273 10.881014 -1.204154 -0.037734 2.325173 0.318650 1.093454 0.433683 -0.000000 -0.000000 0.000002 0.780511 2.266540 -9.845898 -0.039198 0.057425 -8.823536 0.000004 0.000001 -0.000001 -0.057951 1.143076 -15.947756 -0.014708 -0.043617 -10.491585 -0.000000 0.000001 0.000000 -0.956187 0.304851 -20.266066 0.002263 0.016824 -13.465768 -0.000003 -0.000001 -0.000001 -2.256748 -1.970777 -24.904407 -0.016582 -0.001842 -16.389708 -0.000004 -0.000000 -0.000002 0.000001 -0.000000 0.000000 2.374284 -3.484716 16.761271 13.068530 30.204005 51.934774 13.595681 26.328815 -0.878535 -25.360436 0.110639 -14.410975 2.581842 -11.453552 -2.444561 -0.570750 -0.849114 0.050492 0.000000 -0.000002 -0.000002 1.440381 0.413066 28.354753 -0.036437 -0.061711 22.129074 -0.000003 -0.000001 0.000002 1.194452 -2.816514 28.395487 -0.003764 0.018418 22.137616 0.000001 0.000003 0.000000 2.678410 -6.989696 31.433729 -0.003188 0.002741 24.099370 -0.000002 -0.000001 0.000000 1.168964 -9.903075 35.638011 -0.027257 -0.005279 28.957014 -0.000001 0.000000 0.000004 0.000003 -0.000000 0.000000 -0.000000 0.000001 0.000000 -0.000000 0.000001 0.000000 -0.000000 0.000001 0.000000 -0.000000 0.000001 0.000000 -0.000000 0.000001 0.000000 -0.000000 0.000001 0.000000 -0.000000 0.000001 0.000000 -0.000000 0.000001 0.000000 -0.000000 0.000001 0.000000 0.000000 -0.000001 0.000000 0.000000 -0.000001 0.000000 -0.000000 0.000001 0.000000 
0.901274 80.286743 -40.934315 169.991305 -61.330079 169.833036 -0.000000 -0.000000 -0.000000 -30.893096 -0.244147 12.985208 39.295407 -1.745791 -2.153776 -7.371494 1.977019 -6.135118 -0.000000 0.000000 -0.000000 -0.000000 0.000000 -0.000000 -0.000000 0.000002 0.000000 -12.971036 -10.533841 8.388399 21.789967 13.697118 1.800645 -11.036393 -0.827945 -13.133136 0.000000 0.000002 -0.000000 0.000000 0.000002 -0.000000 0.000000 0.000001 -0.000000 5.155991 2.073557 4.200078 -5.105465 2.660215 -2.985250 -4.948700 2.420736 -3.321704 1.055483 22.542836 10.042756 3.926671 26.820370 -13.626401 0.000000 0.000002 -0.000000 0.000000 0.000002 -0.000000 0.000000 0.000002 -0.000000 1.084987 -0.270532 0.764947 7.759408 1.002653 -69.954558 9.038377 -17.908092 -8.643479 -0.335425 5.197249 10.898092 -1.478751 -0.052902 2.856652 0.423966 1.338733 0.492546 -0.000000 -0.000001 0.000002 0.776362 2.123265 -10.418612 -0.038689 0.058190 -9.704961 -0.000004 -0.000001 -0.000002 -0.070165 1.239208 -17.072147 -0.015192 -0.043099 -11.179841 0.000001 -0.000001 -0.000000 -0.932952 0.718946 -21.232288 0.001400 0.016842 -14.059867 -0.000003 -0.000001 0.000001 -2.179913 -1.508465 -25.735036 -0.015920 -0.001807 -16.850638 0.000003 0.000001 0.000002 0.000004 0.000001 0.000000 2.402570 -3.497405 16.751809 12.583205 31.110907 52.037767 13.766162 26.236995 -1.171554 -25.494559 0.419189 -14.057170 2.689872 -11.385043 -2.336688 -0.589400 -0.816117 0.061315 0.000001 -0.000000 -0.000002 1.424563 0.474518 28.171908 -0.036553 -0.061453 21.925421 0.000000 -0.000001 0.000005 1.214508 -2.843289 28.205633 -0.004092 0.018564 22.050427 -0.000000 -0.000001 -0.000000 2.743104 -7.190497 31.250492 -0.003093 0.002936 24.042225 -0.000001 -0.000001 0.000000 1.304921 -10.155913 35.440820 -0.027387 -0.004630 28.751760 -0.000001 -0.000000 0.000002 0.000000 -0.000002 0.000001 -0.000000 0.000002 -0.000000 -0.000000 0.000002 -0.000000 -0.000000 0.000002 -0.000000 -0.000000 0.000002 -0.000000 -0.000000 0.000002 0.000000 -0.000000 -0.000000 0.000000 -0.000000 0.000002 -0.000000 -0.000000 0.000002 0.000000 -0.000000 -0.000000 0.000000 -0.000000 -0.000002 0.000000 -0.000000 -0.000002 0.000000 -0.000000 -0.000000 -0.000000 
0.646668 80.316071 -41.536030 171.015902 -58.440048 171.007556 0.000000 0.000001 -0.000000 -30.798839 -3.853027 10.680350 38.556647 -1.818288 -2.079806 -7.163215 2.312118 -6.494578 0.000000 0.000002 -0.000000 0.000000 0.000002 -0.000000 -0.000000 0.000001 0.000001 -12.344309 -9.300411 8.590264 21.259701 15.880559 2.356400 -10.562532 -1.257068 -14.081998 -0.000000 0.000000 -0.000000 -0.000000 0.000000 -0.000000 -0.000001 0.000001 0.000000 5.353616 2.286766 3.916879 -4.955287 2.804419 -2.879611 -4.801089 2.565714 -3.228154 1.136430 21.321713 9.663833 3.243142 25.509223 -12.836990 0.000000 0.000001 0.000000 0.000000 0.000001 0.000000 0.000000 0.000001 0.000000 1.090521 -0.182192 0.891428 7.710972 1.275661 -70.804596 9.524831 -16.278595 -8.901435 -0.390370 4.458871 10.944908 -1.769599 -0.071485 3.420116 0.535334 1.598861 0.554591 0.000001 0.000001 -0.000001 0.768856 1.971741 -11.025881 -0.038092 0.058884 -10.639439 0.000001 0.000001 -0.000003 -0.080011 1.342133 -18.264404 -0.015684 -0.042497 -11.909596 -0.000003 -0.000002 -0.000000 -0.893379 1.157118 -22.256288 0.000515 0.016855 -14.689864 -0.000001 -0.000001 -0.000001 -2.084353 -1.021314 -26.615722 -0.015225 -0.001726 -17.339241 0.000000 -0.000002 -0.000000 0.000004 0.000000 0.000000 2.414812 -3.468812 16.571755 11.779242 32.237803 52.296525 13.724225 25.885357 -1.445381 -25.372618 0.810114 -13.612440 2.749173 -11.300870 -2.257985 -0.586611 -0.825559 0.059891 0.000000 0.000001 -0.000000 1.416255 0.519345 27.896007 -0.036858 -0.061121 21.624305 0.000000 0.000002 0.000002 1.233993 -2.874397 27.920239 -0.004602 0.018916 21.892954 -0.000001 -0.000001 -0.000000 2.793576 -7.399029 30.970905 -0.003028 0.003479 23.922114 -0.000001 -0.000001 0.000002 1.432156 -10.393845 35.139677 -0.027690 -0.003783 28.434091 -0.000001 0.000000 0.000002 -0.000001 0.000001 0.000002 -0.000000 -0.000001 -0.000000 -0.000000 -0.000001 -0.000000 -0.000000 -0.000001 -0.000000 -0.000000 -0.000001 -0.000000 -0.000000 -0.000001 0.000000 -0.000000 -0.000002 0.000000 -0.000000 -0.000001 -0.000000 -0.000000 -0.000001 0.000000 -0.000000 -0.000002 0.000000 0.000000 -0.000000 -0.000000 0.000000 -0.000000 -0.000000 0.000000 0.000001 -0.000000 
0.384764 80.342743 -42.143185 171.872176 -55.556803 172.012304 -0.000000 -0.000001 -0.000000 -30.952898 -7.074952 8.684157 37.513305 -1.838247 -1.966047 -6.694650 2.650618 -7.358427 -0.000000 0.000000 -0.000000 -0.000000 0.000000 -0.000000 -0.000000 0.000001 0.000000 -11.714464 -8.094447 8.734601 20.745448 18.017020 2.901337 -10.092389 -1.637718 -14.976178 0.000000 -0.000002 0.000000 0.000000 -0.000002 0.000000 -0.000001 -0.000002 -0.000000 5.542697 2.481717 3.591707 -4.780151 2.924343 -2.745299 -4.630334 2.689118 -3.101841 1.155753 19.904785 9.110449 2.411543 23.932092 -11.826767 0.000000 -0.000000 -0.000000 0.000000 -0.000000 -0.000000 0.000000 -0.000000 -0.000000 1.095806 -0.075107 0.979790 7.590603 1.535486 -71.647359 10.023773 -14.551993 -9.196462 -0.424791 3.666671 10.967954 -2.073314 -0.093873 4.009378 0.651489 1.871045 0.618945 -0.000004 -0.000000 0.000001 0.757636 1.813753 -11.660776 -0.037467 0.059743 -11.616594 -0.000006 -0.000001 -0.000002 -0.085264 1.450668 -19.510854 -0.016167 -0.041861 -12.672607 -0.000003 -0.000001 -0.000000 -0.835501 1.613781 -23.326423 -0.000339 0.016820 -15.348478 -0.000001 0.000001 -0.000000 -1.968862 -0.515675 -27.536516 -0.014517 -0.001568 -17.850252 -0.000001 -0.000001 -0.000002 0.000001 0.000000 0.000000 2.421332 -3.425017 16.328216 10.845227 33.443881 52.653597 13.606743 25.436943 -1.713349 -25.161070 1.234104 -13.135274 2.763434 -11.202541 -2.206397 -0.565034 -0.874818 0.047919 0.000000 -0.000001 -0.000004 1.414815 0.548672 27.535097 -0.037207 -0.060771 21.233842 0.000000 -0.000004 0.000001 1.252668 -2.909475 27.547282 -0.005340 0.019416 21.671070 -0.000000 -0.000003 -0.000001 2.829557 -7.614533 30.603134 -0.002884 0.004154 23.744116 -0.000001 -0.000003 0.000000 1.549896 -10.618309 34.743536 -0.028183 -0.002630 28.013403 -0.000001 -0.000000 -0.000003 -0.000000 -0.000002 -0.000001 0.000000 -0.000001 0.000000 0.000000 -0.000001 0.000000 0.000000 -0.000001 0.000000 0.000000 -0.000001 0.000000 0.000000 -0.000001 0.000000 -0.000000 0.000001 -0.000000 0.000000 -0.000001 0.000000 0.000000 -0.000001 0.000000 -0.000000 0.000001 -0.000000 0.000000 0.000001 -0.000000 0.000000 0.000001 -0.000000 -0.000000 -0.000001 -0.000000 
